<?xml version="1.0" standalone="no"?><!DOCTYPE svg PUBLIC "-//W3C//DTD SVG 1.1//EN" "http://www.w3.org/Graphics/SVG/1.1/DTD/svg11.dtd"><svg t="1684324767245" class="icon" viewBox="0 0 1024 1024" version="1.1" xmlns="http://www.w3.org/2000/svg" p-id="4261" xmlns:xlink="http://www.w3.org/1999/xlink" width="200" height="200"><path d="M769.28 85.333333a85.333333 85.333333 0 0 1 81.450667 59.861334l80.170666 256.597333A170.666667 170.666667 0 0 1 938.666667 452.693333V853.333333a85.333333 85.333333 0 0 1-85.333334 85.333334H213.333333a85.333333 85.333333 0 0 1-85.333333-85.333334v-400.64a170.666667 170.666667 0 0 1 7.765333-50.901333l80.213334-256.597333A85.333333 85.333333 0 0 1 297.386667 85.333333h471.893333zM661.333333 554.666667h-256a42.666667 42.666667 0 0 0 0 85.333333h256a42.666667 42.666667 0 0 0 0-85.333333z m80.597334-362.666667H324.736a34.133333 34.133333 0 0 0-31.445333 20.821333l-1.493334 4.352L234.666667 426.666667h597.333333l-57.173333-209.493334a34.133333 34.133333 0 0 0-32.896-25.173333z" fill="#ffffff" p-id="4262"></path></svg>