<?xml version="1.0" standalone="no"?><!DOCTYPE svg PUBLIC "-//W3C//DTD SVG 1.1//EN" "http://www.w3.org/Graphics/SVG/1.1/DTD/svg11.dtd"><svg t="1684325402621" class="icon" viewBox="0 0 1024 1024" version="1.1" xmlns="http://www.w3.org/2000/svg" p-id="5355" xmlns:xlink="http://www.w3.org/1999/xlink" width="200" height="200"><path d="M512 0C228.894 0 0 228.894 0 512s228.894 512 512 512 512-228.894 512-512S795.106 0 512 0z m204.8 352.376L557.176 512l156.612 156.612c12.047 12.047 12.047 30.117 0 42.164-12.047 12.048-30.117 12.048-42.164 0L512 557.176 355.388 713.788c-12.047 12.047-33.13 12.047-45.176 0s-12.047-33.13 0-45.176L466.824 512 310.212 355.388c-9.036-6.023-12.047-15.059-12.047-24.094 0-9.035 3.011-18.07 9.035-24.094 6.024-6.024 15.059-9.035 21.082-9.035s18.07 3.011 21.083 9.035l159.623 156.612L668.612 307.2c6.023-6.024 15.059-9.035 24.094-9.035 9.035 0 18.07 3.011 24.094 9.035 12.047 15.059 12.047 33.13 0 45.176z" fill="#2C2C2C" p-id="5356"></path></svg>