<?xml version="1.0" standalone="no"?><!DOCTYPE svg PUBLIC "-//W3C//DTD SVG 1.1//EN" "http://www.w3.org/Graphics/SVG/1.1/DTD/svg11.dtd"><svg t="1684326844336" class="icon" viewBox="0 0 1024 1024" version="1.1" xmlns="http://www.w3.org/2000/svg" p-id="13491" xmlns:xlink="http://www.w3.org/1999/xlink" width="200" height="200"><path d="M38.4 332.8l371.2 166.4L844.8 192 441.6 38.4z" fill="#2c2c2c" p-id="13492"></path><path d="M166.4 825.6l377.6 147.2-134.4-473.6L38.4 332.8z" fill="#2c2c2c" p-id="13493"></path><path d="M864 172.8l140.8 499.2-460.8 326.4-396.8-153.6L12.8 326.4 441.6 12.8l422.4 160z m-38.4 38.4L448 64 64 345.6l128 467.2 352 140.8 416-288-134.4-454.4z" fill="#2c2c2c" p-id="13494"></path><path d="M832 172.8l25.6 38.4-435.2 307.2-25.6-38.4z" fill="#2c2c2c" p-id="13495"></path><path d="M563.2 966.4l-44.8 12.8-128-473.6 44.8-12.8z" fill="#2c2c2c" p-id="13496"></path><path d="M25.6 352l19.2-38.4 377.6 166.4-19.2 38.4z" fill="#2c2c2c" p-id="13497"></path></svg>